<?xml version="1.0" standalone="no"?><!DOCTYPE svg PUBLIC "-//W3C//DTD SVG 1.1//EN" "http://www.w3.org/Graphics/SVG/1.1/DTD/svg11.dtd"><svg t="1517279732421" class="icon" style="" viewBox="0 0 1024 1024" version="1.1" xmlns="http://www.w3.org/2000/svg" p-id="1049" xmlns:xlink="http://www.w3.org/1999/xlink" width="16" height="16"><defs><style type="text/css"></style></defs><path d="M850.808496 59.35176H171.317831c-79.798441 0-144.720056 69.272713-144.720056 154.419975v459.192283c0 32.097022 9.163707 62.859653 26.499537 88.960101 16.024975 24.12649 37.85619 42.639123 63.354933 53.788044l-18.654872 111.016443c-2.296299 13.663184 3.662413 26.839275 15.178701 33.568537 4.650927 2.716878 9.679453 4.059456 14.676258 4.059455 6.463202 0 12.874215-2.245134 18.34481-6.668886l161.220868-130.302695h543.588439c79.798441 0 144.720056-69.272713 144.720056-154.419975V213.771735C995.527528 128.624473 930.606936 59.35176 850.808496 59.35176zM233.634108 530.823718c-45.585221 0-82.671884-37.086663-82.671884-82.671885s37.086663-82.671884 82.671884-82.671884 82.671884 37.086663 82.671885 82.671884-37.08564 82.671884-82.671885 82.671885z m277.429567 0c-45.585221 0-82.672908-37.086663-82.672908-82.671885s37.086663-82.671884 82.672908-82.671884c45.585221 0 82.670861 37.086663 82.670861 82.671884s-37.08564 82.671884-82.670861 82.671885z m277.42752 0c-45.585221 0-82.671884-37.086663-82.671884-82.671885s37.086663-82.671884 82.671884-82.671884 82.671884 37.086663 82.671884 82.671884-37.086663 82.671884-82.671884 82.671885z" fill="#afafaf" p-id="1050"></path></svg>